<?xml version="1.0" encoding="UTF-8" standalone="no"?>
<!-- Created with Inkscape (http://www.inkscape.org/) -->

<svg
   xmlns:dc="http://purl.org/dc/elements/1.1/"
   xmlns:cc="http://creativecommons.org/ns#"
   xmlns:rdf="http://www.w3.org/1999/02/22-rdf-syntax-ns#"
   xmlns:svg="http://www.w3.org/2000/svg"
   xmlns="http://www.w3.org/2000/svg"
   xmlns:sodipodi="http://sodipodi.sourceforge.net/DTD/sodipodi-0.dtd"
   xmlns:inkscape="http://www.inkscape.org/namespaces/inkscape"
   width="142.52913mm"
   height="40.793369mm"
   viewBox="0 0 505.02448 144.54343"
   id="svg2"
   version="1.1"
   inkscape:version="0.91 r13725"
   sodipodi:docname="drawing.svg">
  <defs
     id="defs4" />
  <sodipodi:namedview
     id="base"
     pagecolor="#ffffff"
     bordercolor="#666666"
     borderopacity="1.0"
     inkscape:pageopacity="0.0"
     inkscape:pageshadow="2"
     inkscape:zoom="1.4142136"
     inkscape:cx="251.1297"
     inkscape:cy="107.24748"
     inkscape:document-units="px"
     inkscape:current-layer="layer1"
     showgrid="false"
     inkscape:window-width="1920"
     inkscape:window-height="1005"
     inkscape:window-x="0"
     inkscape:window-y="24"
     inkscape:window-maximized="1"
     showguides="true"
     inkscape:guide-bbox="true"
     fit-margin-top="10"
     fit-margin-left="10"
     fit-margin-right="10"
     fit-margin-bottom="10" />
  <metadata
     id="metadata7">
    <rdf:RDF>
      <cc:Work
         rdf:about="">
        <dc:format>image/svg+xml</dc:format>
        <dc:type
           rdf:resource="http://purl.org/dc/dcmitype/StillImage" />
        <dc:title></dc:title>
      </cc:Work>
    </rdf:RDF>
  </metadata>
  <g
     inkscape:label="Layer 1"
     inkscape:groupmode="layer"
     id="layer1"
     transform="translate(-24.388085,-1.8915469)">
    <g
       style="font-style:normal;font-weight:normal;font-size:40px;line-height:125%;font-family:sans-serif;letter-spacing:0px;word-spacing:0px;fill:#000000;fill-opacity:1;stroke:none;stroke-width:1px;stroke-linecap:butt;stroke-linejoin:miter;stroke-opacity:1"
       id="text4136"
       transform="matrix(1.4321174,0,0,1.4321174,-109.75588,-169.47427)">
      <g
         id="g4185">
        <path
           inkscape:connector-curvature="0"
           id="path4160"
           style="font-style:normal;font-variant:normal;font-weight:900;font-stretch:normal;font-family:Montserrat;-inkscape-font-specification:'Montserrat Heavy';letter-spacing:4px;fill:none;stroke:#b7288f;stroke-width:1.5;stroke-miterlimit:4;stroke-dasharray:none;stroke-opacity:1"
           d="m 127.36001,153.11079 -8.2,0 0,-7.32 25.84,0 0,7.32 -8.2,0 0,20.68 -9.44,0 0,-20.68 z" />
        <path
           inkscape:connector-curvature="0"
           id="path4162"
           style="font-style:normal;font-variant:normal;font-weight:900;font-stretch:normal;font-family:Montserrat;-inkscape-font-specification:'Montserrat Heavy';letter-spacing:4px;fill:none;stroke:#b7288f;stroke-width:1.5;stroke-miterlimit:4;stroke-dasharray:none;stroke-opacity:1"
           d="m 169.31063,163.63079 0,10.16 -9.44,0 0,-10.28 -10.56,-17.72 9.96,0 5.72,9.68 5.76,-9.68 9.12,0 -10.56,17.84 z" />
        <path
           inkscape:connector-curvature="0"
           id="path4164"
           style="font-style:normal;font-variant:normal;font-weight:900;font-stretch:normal;font-family:Montserrat;-inkscape-font-specification:'Montserrat Heavy';letter-spacing:4px;fill:none;stroke:#b7288f;stroke-width:1.5;stroke-miterlimit:4;stroke-dasharray:none;stroke-opacity:1"
           d="m 196.58813,145.79079 q 3.88,0 6.76,1.28 2.88,1.28 4.44,3.68 1.56,2.4 1.56,5.6 0,3.2 -1.56,5.6 -1.56,2.4 -4.44,3.68 -2.88,1.28 -6.76,1.28 l -4.04,0 0,6.88 -9.44,0 0,-28 13.48,0 z m -0.6,13.84 q 1.92,0 2.88,-0.84 0.96,-0.88 0.96,-2.44 0,-1.56 -0.96,-2.4 -0.96,-0.88 -2.88,-0.88 l -3.44,0 0,6.56 3.44,0 z" />
        <path
           inkscape:connector-curvature="0"
           id="path4166"
           style="font-style:normal;font-variant:normal;font-weight:900;font-stretch:normal;font-family:Montserrat;-inkscape-font-specification:'Montserrat Heavy';letter-spacing:4px;fill:none;stroke:#b7288f;stroke-width:1.5;stroke-miterlimit:4;stroke-dasharray:none;stroke-opacity:1"
           d="m 236.39929,166.67079 0,7.12 -23.28,0 0,-28 22.76,0 0,7.12 -13.48,0 0,3.28 11.84,0 0,6.8 -11.84,0 0,3.68 14,0 z" />
      </g>
      <g
         id="g4178"
         style="fill:#bd21a0;fill-opacity:1;stroke:none;stroke-opacity:1">
        <path
           inkscape:connector-curvature="0"
           id="path4168"
           style="font-style:normal;font-variant:normal;font-weight:900;font-stretch:normal;font-family:Montserrat;-inkscape-font-specification:'Montserrat Heavy';letter-spacing:4px;fill:#bd21a0;fill-opacity:1;stroke:#b7288f;stroke-width:1.5;stroke-miterlimit:4;stroke-dasharray:none;stroke-opacity:1"
           d="m 254.51241,174.43079 q -3.48,0 -6.8,-0.76 -3.28,-0.8 -5.4,-2.12 l 3.04,-6.88 q 2,1.16 4.48,1.88 2.48,0.68 4.76,0.68 1.96,0 2.8,-0.36 0.84,-0.4 0.84,-1.16 0,-0.88 -1.12,-1.32 -1.08,-0.44 -3.6,-0.96 -3.24,-0.68 -5.4,-1.44 -2.16,-0.8 -3.76,-2.56 -1.6,-1.8 -1.6,-4.84 0,-2.64 1.48,-4.8 1.48,-2.16 4.4,-3.4 2.96,-1.24 7.16,-1.24 2.88,0 5.64,0.64 2.8,0.6 4.92,1.8 l -2.84,6.84 q -4.12,-2.08 -7.8,-2.08 -3.64,0 -3.64,1.76 0,0.84 1.08,1.28 1.08,0.4 3.56,0.88 3.2,0.6 5.4,1.4 2.2,0.76 3.8,2.52 1.64,1.76 1.64,4.8 0,2.64 -1.48,4.8 -1.48,2.12 -4.44,3.4 -2.92,1.24 -7.12,1.24 z" />
        <path
           inkscape:connector-curvature="0"
           id="path4170"
           style="font-style:normal;font-variant:normal;font-weight:900;font-stretch:normal;font-family:Montserrat;-inkscape-font-specification:'Montserrat Heavy';letter-spacing:4px;fill:#bd21a0;fill-opacity:1;stroke:#b7288f;stroke-width:1.5;stroke-miterlimit:4;stroke-dasharray:none;stroke-opacity:1"
           d="m 318.10432,145.79079 -8.96,28 -10.12,0 -4.52,-14.96 -4.76,14.96 -10.12,0 -8.96,-28 9.72,0 4.88,15.92 5.16,-15.92 8.68,0 4.88,16.12 5.16,-16.12 8.96,0 z" />
        <path
           inkscape:connector-curvature="0"
           id="path4172"
           style="font-style:normal;font-variant:normal;font-weight:900;font-stretch:normal;font-family:Montserrat;-inkscape-font-specification:'Montserrat Heavy';letter-spacing:4px;fill:#bd21a0;fill-opacity:1;stroke:#b7288f;stroke-width:1.5;stroke-miterlimit:4;stroke-dasharray:none;stroke-opacity:1"
           d="m 338.26495,168.91079 -10.64,0 -1.88,4.88 -9.6,0 12.24,-28 9.28,0 12.24,28 -9.76,0 -1.88,-4.88 z m -2.6,-6.8 -2.72,-7.04 -2.72,7.04 5.44,0 z" />
        <path
           inkscape:connector-curvature="0"
           id="path4174"
           style="font-style:normal;font-variant:normal;font-weight:900;font-stretch:normal;font-family:Montserrat;-inkscape-font-specification:'Montserrat Heavy';letter-spacing:4px;fill:#bd21a0;fill-opacity:1;stroke:#b7288f;stroke-width:1.5;stroke-miterlimit:4;stroke-dasharray:none;stroke-opacity:1"
           d="m 367.45057,166.75079 -2.56,0 0,7.04 -9.44,0 0,-28 13.48,0 q 3.88,0 6.76,1.28 2.88,1.28 4.44,3.68 1.56,2.4 1.56,5.6 0,3 -1.36,5.24 -1.36,2.24 -3.92,3.56 l 5.88,8.64 -10.08,0 -4.76,-7.04 z m 4.72,-10.4 q 0,-1.56 -0.96,-2.4 -0.96,-0.88 -2.88,-0.88 l -3.44,0 0,6.56 3.44,0 q 1.92,0 2.88,-0.84 0.96,-0.88 0.96,-2.44 z" />
        <path
           inkscape:connector-curvature="0"
           id="path4176"
           style="font-style:normal;font-variant:normal;font-weight:900;font-stretch:normal;font-family:Montserrat;-inkscape-font-specification:'Montserrat Heavy';letter-spacing:4px;fill:#bd21a0;fill-opacity:1;stroke:#b7288f;stroke-width:1.5;stroke-miterlimit:4;stroke-dasharray:none;stroke-opacity:1"
           d="m 412.2162,173.79079 -0.08,-12.76 -6.08,10.24 -4.16,0 -6.08,-9.8 0,12.32 -8.6,0 0,-28 7.76,0 9.12,14.92 8.88,-14.92 7.76,0 0.08,28 -8.6,0 z" />
      </g>
    </g>
    <g
       transform="matrix(1.4119375,0,0,1.4525858,-25.849767,-16.12862)"
       style="font-style:normal;font-variant:normal;font-weight:normal;font-stretch:normal;font-size:9.90500736px;line-height:125%;font-family:Bebas;-inkscape-font-specification:Bebas;letter-spacing:0px;word-spacing:0px;fill:#a498a2;fill-opacity:1;stroke:none;stroke-width:1px;stroke-linecap:butt;stroke-linejoin:miter;stroke-opacity:1"
       id="text4191">
      <path
         d="m 90.618242,78.466967 q 0.643826,0 1.109361,0.188195 0.475441,0.178291 0.940976,0.564586 l -0.55468,0.57449 q -0.366486,-0.29715 -0.703256,-0.425915 -0.33677,-0.128765 -0.792401,-0.128765 -0.524965,0 -0.97069,0.287245 -0.435821,0.27734 -0.713161,0.901356 -0.27734,0.61411 -0.27734,1.564991 0,1.436226 0.465535,2.099862 0.475441,0.663635 1.396606,0.663635 0.752781,0 1.297556,-0.307055 l 0,-2.060242 -1.208411,0 -0.108955,-0.762685 2.248437,0 0,3.298367 q -1.059836,0.604206 -2.228627,0.604206 -1.347081,0 -2.109766,-0.901356 -0.752781,-0.901356 -0.752781,-2.634732 0,-1.109361 0.396201,-1.901761 0.406105,-0.802306 1.079645,-1.208411 0.683446,-0.416011 1.485751,-0.416011 z"
         style="font-style:normal;font-variant:normal;font-weight:normal;font-stretch:normal;font-family:'Fira Sans';-inkscape-font-specification:'Fira Sans';fill:#a498a2;fill-opacity:1"
         id="path4165"
         inkscape:connector-curvature="0" />
      <path
         d="m 98.243705,82.64688 q 0,0.227816 -0.01981,0.465536 l -3.328082,0 q 0.05943,0.861735 0.43582,1.267841 0.37639,0.406105 0.970691,0.406105 0.37639,0 0.69335,-0.108955 0.316961,-0.108955 0.663636,-0.346675 l 0.3962,0.544775 q -0.832021,0.653731 -1.822521,0.653731 -1.089551,0 -1.703662,-0.713161 -0.604205,-0.71316 -0.604205,-1.961191 0,-0.812211 0.25753,-1.436226 0.267435,-0.633921 0.752781,-0.990501 0.49525,-0.35658 1.158886,-0.35658 1.040025,0 1.594706,0.683445 0.55468,0.683446 0.55468,1.891856 z M 97.34235,82.379445 q 0,-0.77259 -0.307056,-1.178696 -0.307055,-0.406105 -0.921165,-0.406105 -1.119266,0 -1.218316,1.644231 l 2.446537,0 0,-0.05943 z"
         style="font-style:normal;font-variant:normal;font-weight:normal;font-stretch:normal;font-family:'Fira Sans';-inkscape-font-specification:'Fira Sans';fill:#a498a2;fill-opacity:1"
         id="path4167"
         inkscape:connector-curvature="0" />
      <path
         d="m 102.15541,80.071579 q 0.71316,0 1.10936,0.425915 0.40611,0.425915 0.40611,1.168791 l 0,3.744093 -0.91127,0 0,-3.615328 q 0,-0.554681 -0.208,-0.782496 -0.20801,-0.227815 -0.61411,-0.227815 -0.41601,0 -0.73297,0.23772 -0.31696,0.23772 -0.5943,0.683446 l 0,3.704473 -0.911263,0 0,-5.219939 0.782493,0 0.0792,0.77259 q 0.27734,-0.41601 0.68345,-0.65373 0.41601,-0.23772 0.91126,-0.23772 z"
         style="font-style:normal;font-variant:normal;font-weight:normal;font-stretch:normal;font-family:'Fira Sans';-inkscape-font-specification:'Fira Sans';fill:#a498a2;fill-opacity:1"
         id="path4169"
         inkscape:connector-curvature="0" />
      <path
         d="m 109.44488,82.64688 q 0,0.227816 -0.0198,0.465536 l -3.32809,0 q 0.0594,0.861735 0.43582,1.267841 0.37639,0.406105 0.97069,0.406105 0.37639,0 0.69335,-0.108955 0.31696,-0.108955 0.66364,-0.346675 l 0.3962,0.544775 q -0.83202,0.653731 -1.82252,0.653731 -1.08955,0 -1.70366,-0.713161 -0.60421,-0.71316 -0.60421,-1.961191 0,-0.812211 0.25753,-1.436226 0.26744,-0.633921 0.75278,-0.990501 0.49525,-0.35658 1.15889,-0.35658 1.04002,0 1.5947,0.683445 0.55469,0.683446 0.55469,1.891856 z m -0.90136,-0.267435 q 0,-0.77259 -0.30706,-1.178696 -0.30705,-0.406105 -0.92116,-0.406105 -1.11927,0 -1.21832,1.644231 l 2.44654,0 0,-0.05943 z"
         style="font-style:normal;font-variant:normal;font-weight:normal;font-stretch:normal;font-family:'Fira Sans';-inkscape-font-specification:'Fira Sans';fill:#a498a2;fill-opacity:1"
         id="path4171"
         inkscape:connector-curvature="0" />
      <path
         d="m 113.16838,80.071579 q 0.27734,0 0.51506,0.05943 l -0.16838,0.89145 q -0.23772,-0.05943 -0.45563,-0.05943 -0.48535,0 -0.7825,0.35658 -0.29715,0.356581 -0.46553,1.109361 l 0,2.981408 -0.91126,0 0,-5.219939 0.78249,0 0.0892,1.059835 q 0.208,-0.584395 0.56458,-0.881545 0.35658,-0.29715 0.83202,-0.29715 z"
         style="font-style:normal;font-variant:normal;font-weight:normal;font-stretch:normal;font-family:'Fira Sans';-inkscape-font-specification:'Fira Sans';fill:#a498a2;fill-opacity:1"
         id="path4173"
         inkscape:connector-curvature="0" />
      <path
         d="m 117.89864,84.192062 q 0,0.31696 0.10896,0.47544 0.10895,0.148575 0.32686,0.227815 l -0.208,0.633921 q -0.40611,-0.04953 -0.65373,-0.227816 -0.24763,-0.17829 -0.36649,-0.55468 -0.52496,0.782496 -1.55508,0.782496 -0.77259,0 -1.21832,-0.435821 -0.44572,-0.43582 -0.44572,-1.139076 0,-0.83202 0.5943,-1.277746 0.6042,-0.445725 1.70366,-0.445725 l 0.8023,0 0,-0.386295 q 0,-0.554681 -0.26743,-0.792401 -0.26744,-0.23772 -0.82212,-0.23772 -0.57449,0 -1.40651,0.27734 l -0.22781,-0.663635 q 0.97069,-0.35658 1.80271,-0.35658 0.92116,0 1.37679,0.45563 0.45563,0.445725 0.45563,1.277746 l 0,2.387107 z m -2.13948,0.65373 q 0.7825,0 1.22822,-0.812211 l 0,-1.198505 -0.68344,0 q -1.44613,0 -1.44613,1.06974 0,0.465536 0.22781,0.703256 0.22782,0.23772 0.67354,0.23772 z"
         style="font-style:normal;font-variant:normal;font-weight:normal;font-stretch:normal;font-family:'Fira Sans';-inkscape-font-specification:'Fira Sans';fill:#a498a2;fill-opacity:1"
         id="path4175"
         inkscape:connector-curvature="0" />
      <path
         d="m 122.41455,85.172657 q -0.51506,0.356581 -1.16879,0.356581 -0.66363,0 -1.04002,-0.376391 -0.36649,-0.386295 -0.36649,-1.109361 l 0,-3.149792 -0.91126,0 0,-0.703255 0.91126,0 0,-1.178696 0.91126,-0.108955 0,1.287651 1.23813,0 -0.0991,0.703255 -1.13908,0 0,3.110172 q 0,0.406106 0.13867,0.594301 0.14858,0.17829 0.48535,0.17829 0.30705,0 0.69335,-0.208005 l 0.34667,0.604205 z"
         style="font-style:normal;font-variant:normal;font-weight:normal;font-stretch:normal;font-family:'Fira Sans';-inkscape-font-specification:'Fira Sans';fill:#a498a2;fill-opacity:1"
         id="path4177"
         inkscape:connector-curvature="0" />
      <path
         d="m 127.14621,82.64688 q 0,0.227816 -0.0198,0.465536 l -3.32809,0 q 0.0594,0.861735 0.43583,1.267841 0.37639,0.406105 0.97069,0.406105 0.37639,0 0.69335,-0.108955 0.31696,-0.108955 0.66363,-0.346675 l 0.3962,0.544775 q -0.83202,0.653731 -1.82252,0.653731 -1.08955,0 -1.70366,-0.713161 -0.60421,-0.71316 -0.60421,-1.961191 0,-0.812211 0.25753,-1.436226 0.26744,-0.633921 0.75278,-0.990501 0.49526,-0.35658 1.15889,-0.35658 1.04003,0 1.59471,0.683445 0.55468,0.683446 0.55468,1.891856 z m -0.90136,-0.267435 q 0,-0.77259 -0.30705,-1.178696 -0.30706,-0.406105 -0.92117,-0.406105 -1.11927,0 -1.21832,1.644231 l 2.44654,0 0,-0.05943 z"
         style="font-style:normal;font-variant:normal;font-weight:normal;font-stretch:normal;font-family:'Fira Sans';-inkscape-font-specification:'Fira Sans';fill:#a498a2;fill-opacity:1"
         id="path4179"
         inkscape:connector-curvature="0" />
      <path
         d="m 132.70833,78.585827 q 1.54518,0 2.47626,0.723066 0.94097,0.71316 0.94097,2.654542 0,1.891856 -0.94097,2.674352 -0.93108,0.772591 -2.26825,0.772591 l -1.63433,0 0,-6.824551 1.42632,0 z m -0.48534,0.752781 0,5.328894 0.76268,0 q 0.95088,0 1.54518,-0.584395 0.59431,-0.584396 0.59431,-2.119672 0,-1.079646 -0.30706,-1.654136 -0.30706,-0.584396 -0.7825,-0.772591 -0.47544,-0.1981 -1.11926,-0.1981 l -0.69335,0 z"
         style="font-style:normal;font-variant:normal;font-weight:normal;font-stretch:normal;font-family:'Fira Sans';-inkscape-font-specification:'Fira Sans';fill:#a498a2;fill-opacity:1"
         id="path4181"
         inkscape:connector-curvature="0" />
      <path
         d="m 139.57777,80.071579 q 1.09945,0 1.70366,0.73297 0.61411,0.732971 0.61411,1.990907 0,0.81221 -0.27734,1.436226 -0.27734,0.61411 -0.80231,0.960785 -0.52496,0.336771 -1.24803,0.336771 -1.09946,0 -1.71357,-0.732971 -0.61411,-0.73297 -0.61411,-1.990906 0,-0.812211 0.27734,-1.426321 0.27734,-0.624016 0.80231,-0.960786 0.52496,-0.346675 1.25794,-0.346675 z m 0,0.73297 q -1.35699,0 -1.35699,2.000812 0,1.990906 1.34708,1.990906 1.34708,0 1.34708,-2.000811 0,-1.990907 -1.33717,-1.990907 z"
         style="font-style:normal;font-variant:normal;font-weight:normal;font-stretch:normal;font-family:'Fira Sans';-inkscape-font-specification:'Fira Sans';fill:#a498a2;fill-opacity:1"
         id="path4183"
         inkscape:connector-curvature="0" />
      <path
         d="m 145.30271,80.071579 q 0.46553,0 0.85183,0.13867 0.38629,0.128765 0.74287,0.425915 l -0.43582,0.57449 q -0.27734,-0.1981 -0.54477,-0.287245 -0.25753,-0.09905 -0.57449,-0.09905 -0.63392,0 -0.99051,0.505155 -0.34667,0.505156 -0.34667,1.495657 0,0.9905 0.34667,1.465941 0.34668,0.465535 0.99051,0.465535 0.30705,0 0.56458,-0.08915 0.25753,-0.09905 0.57449,-0.307055 l 0.41601,0.5943 q -0.71316,0.574491 -1.5947,0.574491 -1.05984,0 -1.67395,-0.713161 -0.60421,-0.71316 -0.60421,-1.971096 0,-0.832021 0.27734,-1.456036 0.27734,-0.624016 0.7825,-0.970691 0.51506,-0.346675 1.21832,-0.346675 z"
         style="font-style:normal;font-variant:normal;font-weight:normal;font-stretch:normal;font-family:'Fira Sans';-inkscape-font-specification:'Fira Sans';fill:#a498a2;fill-opacity:1"
         id="path4185"
         inkscape:connector-curvature="0" />
      <path
         d="m 149.05191,77.981622 0,7.428756 -0.91127,0 0,-7.319801 0.91127,-0.108955 z m 3.00121,2.208817 -1.92157,2.307866 2.13948,2.912073 -1.08955,0 -2.07014,-2.852643 1.92157,-2.367296 1.02021,0 z"
         style="font-style:normal;font-variant:normal;font-weight:normal;font-stretch:normal;font-family:'Fira Sans';-inkscape-font-specification:'Fira Sans';fill:#a498a2;fill-opacity:1"
         id="path4187"
         inkscape:connector-curvature="0" />
      <path
         d="m 157.05469,82.64688 q 0,0.227816 -0.0198,0.465536 l -3.32809,0 q 0.0594,0.861735 0.43582,1.267841 0.37639,0.406105 0.97069,0.406105 0.37639,0 0.69335,-0.108955 0.31696,-0.108955 0.66364,-0.346675 l 0.3962,0.544775 q -0.83202,0.653731 -1.82252,0.653731 -1.08955,0 -1.70366,-0.713161 -0.60421,-0.71316 -0.60421,-1.961191 0,-0.812211 0.25753,-1.436226 0.26744,-0.633921 0.75278,-0.990501 0.49525,-0.35658 1.15889,-0.35658 1.04002,0 1.5947,0.683445 0.55469,0.683446 0.55469,1.891856 z m -0.90136,-0.267435 q 0,-0.77259 -0.30706,-1.178696 -0.30705,-0.406105 -0.92116,-0.406105 -1.11927,0 -1.21832,1.644231 l 2.44654,0 0,-0.05943 z"
         style="font-style:normal;font-variant:normal;font-weight:normal;font-stretch:normal;font-family:'Fira Sans';-inkscape-font-specification:'Fira Sans';fill:#a498a2;fill-opacity:1"
         id="path4189"
         inkscape:connector-curvature="0" />
      <path
         d="m 160.77819,80.071579 q 0.27734,0 0.51506,0.05943 l -0.16838,0.89145 q -0.23772,-0.05943 -0.45563,-0.05943 -0.48535,0 -0.7825,0.35658 -0.29715,0.356581 -0.46553,1.109361 l 0,2.981408 -0.91126,0 0,-5.219939 0.78249,0 0.0891,1.059835 q 0.208,-0.584395 0.56458,-0.881545 0.35658,-0.29715 0.83202,-0.29715 z"
         style="font-style:normal;font-variant:normal;font-weight:normal;font-stretch:normal;font-family:'Fira Sans';-inkscape-font-specification:'Fira Sans';fill:#a498a2;fill-opacity:1"
         id="path4191"
         inkscape:connector-curvature="0" />
      <path
         d="m 166.70479,78.466967 q 0.68345,0 1.16879,0.1981 0.48535,0.188196 0.94098,0.594301 l -0.51506,0.57449 q -0.3863,-0.307055 -0.76269,-0.445725 -0.36648,-0.148575 -0.7924,-0.148575 -0.53487,0 -0.88154,0.247625 -0.34668,0.247625 -0.34668,0.723066 0,0.29715 0.11886,0.505155 0.11886,0.1981 0.43582,0.366485 0.32687,0.168385 0.94098,0.356581 0.64382,0.1981 1.06974,0.425915 0.42591,0.227815 0.68344,0.63392 0.26744,0.396201 0.26744,1.010311 0,0.594301 -0.29715,1.049931 -0.28725,0.45563 -0.84193,0.71316 -0.54477,0.257531 -1.29755,0.257531 -1.41642,0 -2.31777,-0.881546 l 0.51506,-0.57449 q 0.41601,0.33677 0.84192,0.51506 0.42592,0.168385 0.95088,0.168385 0.63392,0 1.04993,-0.307055 0.41601,-0.31696 0.41601,-0.911261 0,-0.33677 -0.12876,-0.55468 -0.12877,-0.227815 -0.44573,-0.406106 -0.30705,-0.17829 -0.90135,-0.35658 -1.04993,-0.31696 -1.53528,-0.762685 -0.48534,-0.445726 -0.48534,-1.208411 0,-0.515061 0.26743,-0.921166 0.27734,-0.406105 0.76269,-0.63392 0.49525,-0.227816 1.11926,-0.227816 z"
         style="font-style:normal;font-variant:normal;font-weight:normal;font-stretch:normal;font-family:'Fira Sans';-inkscape-font-specification:'Fira Sans';fill:#a498a2;fill-opacity:1"
         id="path4193"
         inkscape:connector-curvature="0" />
      <path
         d="m 176.33168,80.190439 -1.1886,5.219939 -1.23812,0 -0.91126,-4.397824 -0.94098,4.397824 -1.20841,0 -1.21832,-5.219939 0.91127,0 0.94097,4.586018 1.03012,-4.586018 1.02022,0 0.98059,4.586018 0.95088,-4.586018 0.87164,0 z"
         style="font-style:normal;font-variant:normal;font-weight:normal;font-stretch:normal;font-family:'Fira Sans';-inkscape-font-specification:'Fira Sans';fill:#a498a2;fill-opacity:1"
         id="path4195"
         inkscape:connector-curvature="0" />
      <path
         d="m 180.86896,84.192062 q 0,0.31696 0.10895,0.47544 0.10896,0.148575 0.32687,0.227815 l -0.20801,0.633921 q -0.4061,-0.04953 -0.65373,-0.227816 -0.24762,-0.17829 -0.36648,-0.55468 -0.52497,0.782496 -1.55509,0.782496 -0.77259,0 -1.21831,-0.435821 -0.44573,-0.43582 -0.44573,-1.139076 0,-0.83202 0.5943,-1.277746 0.60421,-0.445725 1.70366,-0.445725 l 0.80231,0 0,-0.386295 q 0,-0.554681 -0.26744,-0.792401 -0.26743,-0.23772 -0.82211,-0.23772 -0.57449,0 -1.40651,0.27734 l -0.22782,-0.663635 q 0.97069,-0.35658 1.80271,-0.35658 0.92117,0 1.3768,0.45563 0.45563,0.445725 0.45563,1.277746 l 0,2.387107 z m -2.13948,0.65373 q 0.78249,0 1.22822,-0.812211 l 0,-1.198505 -0.68345,0 q -1.44613,0 -1.44613,1.06974 0,0.465536 0.22782,0.703256 0.22781,0.23772 0.67354,0.23772 z"
         style="font-style:normal;font-variant:normal;font-weight:normal;font-stretch:normal;font-family:'Fira Sans';-inkscape-font-specification:'Fira Sans';fill:#a498a2;fill-opacity:1"
         id="path4197"
         inkscape:connector-curvature="0" />
      <path
         d="m 185.01838,80.071579 q 0.27734,0 0.51506,0.05943 l -0.16838,0.89145 q -0.23772,-0.05943 -0.45563,-0.05943 -0.48535,0 -0.7825,0.35658 -0.29715,0.356581 -0.46554,1.109361 l 0,2.981408 -0.91126,0 0,-5.219939 0.7825,0 0.0891,1.059835 q 0.20801,-0.584395 0.56459,-0.881545 0.35658,-0.29715 0.83202,-0.29715 z"
         style="font-style:normal;font-variant:normal;font-weight:normal;font-stretch:normal;font-family:'Fira Sans';-inkscape-font-specification:'Fira Sans';fill:#a498a2;fill-opacity:1"
         id="path4199"
         inkscape:connector-curvature="0" />
      <path
         d="m 191.82033,80.071579 q 0.64383,0 1.03013,0.43582 0.38629,0.425915 0.38629,1.158886 l 0,3.744093 -0.91126,0 0,-3.615328 q 0,-1.010311 -0.73297,-1.010311 -0.3863,0 -0.65373,0.227815 -0.26744,0.21791 -0.57449,0.693351 l 0,3.704473 -0.91126,0 0,-3.615328 q 0,-1.010311 -0.73297,-1.010311 -0.3962,0 -0.66364,0.227815 -0.26743,0.227815 -0.56458,0.693351 l 0,3.704473 -0.91126,0 0,-5.219939 0.78249,0 0.0792,0.762685 q 0.5844,-0.881545 1.50556,-0.881545 0.48535,0 0.82212,0.247625 0.34667,0.247625 0.49525,0.69335 0.30705,-0.45563 0.67354,-0.69335 0.37639,-0.247625 0.88154,-0.247625 z"
         style="font-style:normal;font-variant:normal;font-weight:normal;font-stretch:normal;font-family:'Fira Sans';-inkscape-font-specification:'Fira Sans';fill:#a498a2;fill-opacity:1"
         id="path4201"
         inkscape:connector-curvature="0" />
      <path
         d="m 199.60613,80.071579 q 0.46554,0 0.85183,0.13867 0.3863,0.128765 0.74288,0.425915 l -0.43582,0.57449 q -0.27734,-0.1981 -0.54478,-0.287245 -0.25753,-0.09905 -0.57449,-0.09905 -0.63392,0 -0.9905,0.505155 -0.34667,0.505156 -0.34667,1.495657 0,0.9905 0.34667,1.465941 0.34668,0.465535 0.9905,0.465535 0.30706,0 0.56459,-0.08915 0.25753,-0.09905 0.57449,-0.307055 l 0.41601,0.5943 q -0.71316,0.574491 -1.59471,0.574491 -1.05983,0 -1.67394,-0.713161 -0.60421,-0.71316 -0.60421,-1.971096 0,-0.832021 0.27734,-1.456036 0.27734,-0.624016 0.7825,-0.970691 0.51506,-0.346675 1.21831,-0.346675 z"
         style="font-style:normal;font-variant:normal;font-weight:normal;font-stretch:normal;font-family:'Fira Sans';-inkscape-font-specification:'Fira Sans';fill:#a498a2;fill-opacity:1"
         id="path4203"
         inkscape:connector-curvature="0" />
      <path
         d="m 204.21181,80.071579 q 1.09945,0 1.70366,0.73297 0.61411,0.732971 0.61411,1.990907 0,0.81221 -0.27734,1.436226 -0.27734,0.61411 -0.80231,0.960785 -0.52496,0.336771 -1.24803,0.336771 -1.09945,0 -1.71357,-0.732971 -0.61411,-0.73297 -0.61411,-1.990906 0,-0.812211 0.27734,-1.426321 0.27734,-0.624016 0.80231,-0.960786 0.52497,-0.346675 1.25794,-0.346675 z m 0,0.73297 q -1.35699,0 -1.35699,2.000812 0,1.990906 1.34708,1.990906 1.34708,0 1.34708,-2.000811 0,-1.990907 -1.33717,-1.990907 z"
         style="font-style:normal;font-variant:normal;font-weight:normal;font-stretch:normal;font-family:'Fira Sans';-inkscape-font-specification:'Fira Sans';fill:#a498a2;fill-opacity:1"
         id="path4205"
         inkscape:connector-curvature="0" />
      <path
         d="m 210.49143,80.071579 q 0.71316,0 1.10936,0.425915 0.4061,0.425915 0.4061,1.168791 l 0,3.744093 -0.91126,0 0,-3.615328 q 0,-0.554681 -0.208,-0.782496 -0.20801,-0.227815 -0.61411,-0.227815 -0.41601,0 -0.73297,0.23772 -0.31696,0.23772 -0.5943,0.683446 l 0,3.704473 -0.91126,0 0,-5.219939 0.78249,0 0.0792,0.77259 q 0.27734,-0.41601 0.68345,-0.65373 0.41601,-0.23772 0.91126,-0.23772 z"
         style="font-style:normal;font-variant:normal;font-weight:normal;font-stretch:normal;font-family:'Fira Sans';-inkscape-font-specification:'Fira Sans';fill:#a498a2;fill-opacity:1"
         id="path4207"
         inkscape:connector-curvature="0" />
      <path
         d="m 215.63151,77.981622 q 0.41601,0 0.75278,0.08915 0.34668,0.08915 0.69335,0.267435 l -0.31696,0.633921 q -0.51506,-0.247625 -1.09945,-0.247625 -0.52497,0 -0.72307,0.188195 -0.1981,0.188195 -0.1981,0.584395 l 0,0.693351 2.91207,0 0,5.219939 -0.91126,0 0,-4.516684 -2.00081,0 0,4.516684 -0.91126,0 0,-4.516684 -0.83202,0 0,-0.703255 0.83202,0 0,-0.683446 q 0,-0.69335 0.44572,-1.109361 0.44573,-0.41601 1.35699,-0.41601 z"
         style="font-style:normal;font-variant:normal;font-weight:normal;font-stretch:normal;font-family:'Fira Sans';-inkscape-font-specification:'Fira Sans';fill:#a498a2;fill-opacity:1"
         id="path4209"
         inkscape:connector-curvature="0" />
      <path
         d="m 223.73597,80.428159 q -0.29715,0.09905 -0.65373,0.128765 -0.35658,0.02972 -0.87164,0.02972 0.92116,0.41601 0.92116,1.317366 0,0.782495 -0.53487,1.277746 -0.53487,0.49525 -1.45603,0.49525 -0.35658,0 -0.66364,-0.09905 -0.11886,0.07924 -0.18819,0.21791 -0.0693,0.128765 -0.0693,0.267436 0,0.425915 0.68345,0.425915 l 0.83202,0 q 0.52496,0 0.93107,0.188195 0.4061,0.188195 0.62401,0.51506 0.22782,0.326866 0.22782,0.742876 0,0.762685 -0.62402,1.168791 -0.62401,0.41601 -1.82252,0.41601 -0.84192,0 -1.33717,-0.17829 -0.48535,-0.168385 -0.69335,-0.51506 -0.20801,-0.346676 -0.20801,-0.891451 l 0.82212,0 q 0,0.31696 0.11886,0.49525 0.11886,0.188195 0.42591,0.27734 0.30706,0.09905 0.87164,0.09905 0.82212,0 1.16879,-0.208006 0.35658,-0.1981 0.35658,-0.604205 0,-0.366485 -0.27734,-0.55468 -0.27734,-0.188196 -0.77259,-0.188196 l -0.82211,0 q -0.66364,0 -1.01031,-0.27734 -0.33677,-0.287245 -0.33677,-0.71316 0,-0.257531 0.14857,-0.495251 0.14858,-0.23772 0.42592,-0.425915 -0.45563,-0.23772 -0.67354,-0.584395 -0.20801,-0.356581 -0.20801,-0.861736 0,-0.524966 0.25753,-0.940976 0.26744,-0.41601 0.72307,-0.643825 0.46553,-0.23772 1.03012,-0.23772 0.61411,0.0099 1.03012,-0.03962 0.41601,-0.05943 0.68344,-0.148576 0.27734,-0.09905 0.67354,-0.27734 l 0.26744,0.822116 z m -2.65454,0.29715 q -0.51506,0 -0.80231,0.326865 -0.27734,0.31696 -0.27734,0.841926 0,0.53487 0.28725,0.861736 0.28724,0.31696 0.81221,0.31696 0.53487,0 0.81221,-0.307055 0.28724,-0.316961 0.28724,-0.881546 0,-1.158886 -1.11926,-1.158886 z"
         style="font-style:normal;font-variant:normal;font-weight:normal;font-stretch:normal;font-family:'Fira Sans';-inkscape-font-specification:'Fira Sans';fill:#a498a2;fill-opacity:1"
         id="path4211"
         inkscape:connector-curvature="0" />
      <path
         d="m 228.45834,85.410378 -0.78249,0 -0.0693,-0.812211 q -0.29715,0.485345 -0.68344,0.71316 -0.3863,0.217911 -0.94098,0.217911 -0.68344,0 -1.06974,-0.416011 -0.38629,-0.41601 -0.38629,-1.178696 l 0,-3.744092 0.91126,0 0,3.645042 q 0,0.534871 0.18819,0.762686 0.1882,0.21791 0.61411,0.21791 0.76269,0 1.30746,-0.901356 l 0,-3.724282 0.91126,0 0,5.219939 z"
         style="font-style:normal;font-variant:normal;font-weight:normal;font-stretch:normal;font-family:'Fira Sans';-inkscape-font-specification:'Fira Sans';fill:#a498a2;fill-opacity:1"
         id="path4213"
         inkscape:connector-curvature="0" />
      <path
         d="m 232.60884,80.071579 q 0.27734,0 0.51506,0.05943 l -0.16838,0.89145 q -0.23772,-0.05943 -0.45563,-0.05943 -0.48535,0 -0.7825,0.35658 -0.29715,0.356581 -0.46553,1.109361 l 0,2.981408 -0.91126,0 0,-5.219939 0.78249,0 0.0892,1.059835 q 0.208,-0.584395 0.56458,-0.881545 0.35658,-0.29715 0.83202,-0.29715 z"
         style="font-style:normal;font-variant:normal;font-weight:normal;font-stretch:normal;font-family:'Fira Sans';-inkscape-font-specification:'Fira Sans';fill:#a498a2;fill-opacity:1"
         id="path4215"
         inkscape:connector-curvature="0" />
      <path
         d="m 237.33911,84.192062 q 0,0.31696 0.10896,0.47544 0.10895,0.148575 0.32686,0.227815 l -0.208,0.633921 q -0.40611,-0.04953 -0.65373,-0.227816 -0.24763,-0.17829 -0.36649,-0.55468 -0.52496,0.782496 -1.55508,0.782496 -0.7726,0 -1.21832,-0.435821 -0.44573,-0.43582 -0.44573,-1.139076 0,-0.83202 0.5943,-1.277746 0.60421,-0.445725 1.70367,-0.445725 l 0.8023,0 0,-0.386295 q 0,-0.554681 -0.26743,-0.792401 -0.26744,-0.23772 -0.82212,-0.23772 -0.57449,0 -1.40651,0.27734 l -0.22782,-0.663635 q 0.9707,-0.35658 1.80272,-0.35658 0.92116,0 1.37679,0.45563 0.45563,0.445725 0.45563,1.277746 l 0,2.387107 z m -2.13948,0.65373 q 0.7825,0 1.22822,-0.812211 l 0,-1.198505 -0.68344,0 q -1.44614,0 -1.44614,1.06974 0,0.465536 0.22782,0.703256 0.22782,0.23772 0.67354,0.23772 z"
         style="font-style:normal;font-variant:normal;font-weight:normal;font-stretch:normal;font-family:'Fira Sans';-inkscape-font-specification:'Fira Sans';fill:#a498a2;fill-opacity:1"
         id="path4217"
         inkscape:connector-curvature="0" />
      <path
         d="m 241.85501,85.172657 q -0.51506,0.356581 -1.16879,0.356581 -0.66363,0 -1.04002,-0.376391 -0.36649,-0.386295 -0.36649,-1.109361 l 0,-3.149792 -0.91126,0 0,-0.703255 0.91126,0 0,-1.178696 0.91126,-0.108955 0,1.287651 1.23813,0 -0.0991,0.703255 -1.13908,0 0,3.110172 q 0,0.406106 0.13867,0.594301 0.14858,0.17829 0.48535,0.17829 0.30705,0 0.69335,-0.208005 l 0.34667,0.604205 z"
         style="font-style:normal;font-variant:normal;font-weight:normal;font-stretch:normal;font-family:'Fira Sans';-inkscape-font-specification:'Fira Sans';fill:#a498a2;fill-opacity:1"
         id="path4219"
         inkscape:connector-curvature="0" />
      <path
         d="m 243.71051,80.190439 0,5.219939 -0.91127,0 0,-5.219939 0.91127,0 z m -0.46554,-2.505967 q 0.28724,0 0.46554,0.17829 0.17829,0.17829 0.17829,0.445725 0,0.267435 -0.17829,0.445726 -0.1783,0.168385 -0.46554,0.168385 -0.27734,0 -0.45563,-0.168385 -0.17829,-0.178291 -0.17829,-0.445726 0,-0.267435 0.17829,-0.445725 0.17829,-0.17829 0.45563,-0.17829 z"
         style="font-style:normal;font-variant:normal;font-weight:normal;font-stretch:normal;font-family:'Fira Sans';-inkscape-font-specification:'Fira Sans';fill:#a498a2;fill-opacity:1"
         id="path4221"
         inkscape:connector-curvature="0" />
      <path
         d="m 247.54622,80.071579 q 1.09945,0 1.70366,0.73297 0.61411,0.732971 0.61411,1.990907 0,0.81221 -0.27734,1.436226 -0.27734,0.61411 -0.80231,0.960785 -0.52496,0.336771 -1.24803,0.336771 -1.09945,0 -1.71356,-0.732971 -0.61411,-0.73297 -0.61411,-1.990906 0,-0.812211 0.27734,-1.426321 0.27734,-0.624016 0.8023,-0.960786 0.52497,-0.346675 1.25794,-0.346675 z m 0,0.73297 q -1.35699,0 -1.35699,2.000812 0,1.990906 1.34708,1.990906 1.34708,0 1.34708,-2.000811 0,-1.990907 -1.33717,-1.990907 z"
         style="font-style:normal;font-variant:normal;font-weight:normal;font-stretch:normal;font-family:'Fira Sans';-inkscape-font-specification:'Fira Sans';fill:#a498a2;fill-opacity:1"
         id="path4223"
         inkscape:connector-curvature="0" />
      <path
         d="m 253.82583,80.071579 q 0.71316,0 1.10936,0.425915 0.40611,0.425915 0.40611,1.168791 l 0,3.744093 -0.91126,0 0,-3.615328 q 0,-0.554681 -0.20801,-0.782496 -0.208,-0.227815 -0.61411,-0.227815 -0.41601,0 -0.73297,0.23772 -0.31696,0.23772 -0.5943,0.683446 l 0,3.704473 -0.91126,0 0,-5.219939 0.78249,0 0.0792,0.77259 q 0.27734,-0.41601 0.68345,-0.65373 0.41601,-0.23772 0.91126,-0.23772 z"
         style="font-style:normal;font-variant:normal;font-weight:normal;font-stretch:normal;font-family:'Fira Sans';-inkscape-font-specification:'Fira Sans';fill:#a498a2;fill-opacity:1"
         id="path4225"
         inkscape:connector-curvature="0" />
      <path
         d="m 258.58953,80.071579 q 0.53487,0 0.96079,0.148575 0.42591,0.148575 0.81221,0.445725 l -0.3863,0.57449 q -0.35658,-0.227815 -0.68344,-0.33677 -0.31696,-0.108955 -0.67354,-0.108955 -0.44573,0 -0.70326,0.188195 -0.25753,0.17829 -0.25753,0.495251 0,0.31696 0.23772,0.49525 0.24763,0.17829 0.88155,0.346675 0.87164,0.21791 1.29755,0.594301 0.43582,0.37639 0.43582,1.03012 0,0.772591 -0.6042,1.178696 -0.5943,0.406106 -1.45604,0.406106 -1.1886,0 -1.9711,-0.683446 l 0.48535,-0.55468 q 0.66364,0.505155 1.46594,0.505155 0.51506,0 0.81221,-0.208005 0.30706,-0.21791 0.30706,-0.584396 0,-0.267435 -0.10896,-0.425915 -0.10895,-0.168385 -0.37639,-0.287245 -0.26743,-0.128765 -0.78249,-0.267435 -0.83202,-0.21791 -1.20841,-0.584396 -0.36649,-0.366485 -0.36649,-0.93107 0,-0.406106 0.23772,-0.732971 0.24763,-0.33677 0.67354,-0.51506 0.43582,-0.188195 0.97069,-0.188195 z"
         style="font-style:normal;font-variant:normal;font-weight:normal;font-stretch:normal;font-family:'Fira Sans';-inkscape-font-specification:'Fira Sans';fill:#a498a2;fill-opacity:1"
         id="path4227"
         inkscape:connector-curvature="0" />
      <path
         d="m 270.39057,80.190439 -1.1886,5.219939 -1.23813,0 -0.91126,-4.397824 -0.94097,4.397824 -1.20842,0 -1.21831,-5.219939 0.91126,0 0.94097,4.586018 1.03013,-4.586018 1.02021,0 0.9806,4.586018 0.95088,-4.586018 0.87164,0 z"
         style="font-style:normal;font-variant:normal;font-weight:normal;font-stretch:normal;font-family:'Fira Sans';-inkscape-font-specification:'Fira Sans';fill:#a498a2;fill-opacity:1"
         id="path4229"
         inkscape:connector-curvature="0" />
      <path
         d="m 272.4389,80.190439 0,5.219939 -0.91126,0 0,-5.219939 0.91126,0 z m -0.46554,-2.505967 q 0.28725,0 0.46554,0.17829 0.17829,0.17829 0.17829,0.445725 0,0.267435 -0.17829,0.445726 -0.17829,0.168385 -0.46554,0.168385 -0.27734,0 -0.45563,-0.168385 -0.17829,-0.178291 -0.17829,-0.445726 0,-0.267435 0.17829,-0.445725 0.17829,-0.17829 0.45563,-0.17829 z"
         style="font-style:normal;font-variant:normal;font-weight:normal;font-stretch:normal;font-family:'Fira Sans';-inkscape-font-specification:'Fira Sans';fill:#a498a2;fill-opacity:1"
         id="path4231"
         inkscape:connector-curvature="0" />
      <path
         d="m 276.94815,85.172657 q -0.51506,0.356581 -1.16879,0.356581 -0.66363,0 -1.04002,-0.376391 -0.36649,-0.386295 -0.36649,-1.109361 l 0,-3.149792 -0.91126,0 0,-0.703255 0.91126,0 0,-1.178696 0.91126,-0.108955 0,1.287651 1.23813,0 -0.0991,0.703255 -1.13908,0 0,3.110172 q 0,0.406106 0.13867,0.594301 0.14858,0.17829 0.48535,0.17829 0.30705,0 0.69335,-0.208005 l 0.34667,0.604205 z"
         style="font-style:normal;font-variant:normal;font-weight:normal;font-stretch:normal;font-family:'Fira Sans';-inkscape-font-specification:'Fira Sans';fill:#a498a2;fill-opacity:1"
         id="path4233"
         inkscape:connector-curvature="0" />
      <path
         d="m 280.34881,80.071579 q 0.71316,0 1.10936,0.425915 0.40611,0.425915 0.40611,1.168791 l 0,3.744093 -0.91126,0 0,-3.615328 q 0,-0.554681 -0.21791,-0.782496 -0.20801,-0.227815 -0.61411,-0.227815 -0.40611,0 -0.72307,0.23772 -0.31696,0.23772 -0.5943,0.673541 l 0,3.714378 -0.91126,0 0,-7.309896 0.91126,-0.09905 0,2.912072 q 0.61411,-0.841925 1.54518,-0.841925 z"
         style="font-style:normal;font-variant:normal;font-weight:normal;font-stretch:normal;font-family:'Fira Sans';-inkscape-font-specification:'Fira Sans';fill:#a498a2;fill-opacity:1"
         id="path4235"
         inkscape:connector-curvature="0" />
      <path
         d="m 290.40797,78.585827 -0.099,0.802306 -1.89186,0 0,6.022245 -0.94097,0 0,-6.022245 -1.94138,0 0,-0.802306 4.87326,0 z"
         style="font-style:normal;font-variant:normal;font-weight:normal;font-stretch:normal;font-family:'Fira Sans';-inkscape-font-specification:'Fira Sans';fill:#a498a2;fill-opacity:1"
         id="path4237"
         inkscape:connector-curvature="0" />
      <path
         d="m 293.15676,85.440093 q -0.30705,0.91126 -0.86173,1.436226 -0.54478,0.53487 -1.56499,0.643825 l -0.099,-0.71316 q 0.51506,-0.08915 0.82211,-0.257531 0.30706,-0.168385 0.48535,-0.43582 0.18819,-0.25753 0.34667,-0.703255 l -0.30705,0 -1.75319,-5.219939 0.97069,0 1.39661,4.556303 1.36689,-4.556303 0.94098,0 -1.74329,5.249654 z"
         style="font-style:normal;font-variant:normal;font-weight:normal;font-stretch:normal;font-family:'Fira Sans';-inkscape-font-specification:'Fira Sans';fill:#a498a2;fill-opacity:1"
         id="path4239"
         inkscape:connector-curvature="0" />
      <path
         d="m 298.33894,80.071579 q 1.00041,0 1.46594,0.71316 0.46554,0.713161 0.46554,2.010717 0,1.22822 -0.53487,1.981001 -0.53487,0.752781 -1.51547,0.752781 -0.87164,0 -1.36689,-0.594301 l 0,2.476252 -0.91126,0.108955 0,-7.329705 0.78249,0 0.0693,0.703255 q 0.28725,-0.3962 0.69335,-0.604205 0.40611,-0.21791 0.85183,-0.21791 z m -0.33677,4.714783 q 1.28765,0 1.28765,-1.990906 0,-2.000812 -1.17869,-2.000812 -0.3863,0 -0.70326,0.227815 -0.31696,0.227815 -0.55468,0.584396 l 0,2.545587 q 0.1981,0.307055 0.49525,0.47544 0.29715,0.15848 0.65373,0.15848 z"
         style="font-style:normal;font-variant:normal;font-weight:normal;font-stretch:normal;font-family:'Fira Sans';-inkscape-font-specification:'Fira Sans';fill:#a498a2;fill-opacity:1"
         id="path4241"
         inkscape:connector-curvature="0" />
      <path
         d="m 305.76521,82.64688 q 0,0.227816 -0.0198,0.465536 l -3.32808,0 q 0.0594,0.861735 0.43582,1.267841 0.37639,0.406105 0.97069,0.406105 0.37639,0 0.69335,-0.108955 0.31696,-0.108955 0.66364,-0.346675 l 0.3962,0.544775 q -0.83203,0.653731 -1.82253,0.653731 -1.08955,0 -1.70366,-0.713161 -0.6042,-0.71316 -0.6042,-1.961191 0,-0.812211 0.25753,-1.436226 0.26743,-0.633921 0.75278,-0.990501 0.49525,-0.35658 1.15888,-0.35658 1.04003,0 1.59471,0.683445 0.55468,0.683446 0.55468,1.891856 z m -0.90136,-0.267435 q 0,-0.77259 -0.30705,-1.178696 -0.30706,-0.406105 -0.92117,-0.406105 -1.11926,0 -1.21831,1.644231 l 2.44653,0 0,-0.05943 z"
         style="font-style:normal;font-variant:normal;font-weight:normal;font-stretch:normal;font-family:'Fira Sans';-inkscape-font-specification:'Fira Sans';fill:#a498a2;fill-opacity:1"
         id="path4243"
         inkscape:connector-curvature="0" />
      <path
         d="m 308.95385,78.466967 q 0.68345,0 1.1688,0.1981 0.48534,0.188196 0.94097,0.594301 l -0.51506,0.57449 q -0.38629,-0.307055 -0.76268,-0.445725 -0.36649,-0.148575 -0.79241,-0.148575 -0.53487,0 -0.88154,0.247625 -0.34668,0.247625 -0.34668,0.723066 0,0.29715 0.11886,0.505155 0.11886,0.1981 0.43582,0.366485 0.32687,0.168385 0.94098,0.356581 0.64383,0.1981 1.06974,0.425915 0.42592,0.227815 0.68345,0.63392 0.26743,0.396201 0.26743,1.010311 0,0.594301 -0.29715,1.049931 -0.28724,0.45563 -0.84192,0.71316 -0.54478,0.257531 -1.29756,0.257531 -1.41642,0 -2.31777,-0.881546 l 0.51506,-0.57449 q 0.41601,0.33677 0.84192,0.51506 0.42592,0.168385 0.95088,0.168385 0.63393,0 1.04994,-0.307055 0.41601,-0.31696 0.41601,-0.911261 0,-0.33677 -0.12877,-0.55468 -0.12876,-0.227815 -0.44572,-0.406106 -0.30706,-0.17829 -0.90136,-0.35658 -1.04993,-0.31696 -1.53528,-0.762685 -0.48534,-0.445726 -0.48534,-1.208411 0,-0.515061 0.26743,-0.921166 0.27734,-0.406105 0.76269,-0.63392 0.49525,-0.227816 1.11926,-0.227816 z"
         style="font-style:normal;font-variant:normal;font-weight:normal;font-stretch:normal;font-family:'Fira Sans';-inkscape-font-specification:'Fira Sans';fill:#a498a2;fill-opacity:1"
         id="path4245"
         inkscape:connector-curvature="0" />
      <path
         d="m 314.5197,80.071579 q 0.46554,0 0.85183,0.13867 0.3863,0.128765 0.74288,0.425915 l -0.43582,0.57449 q -0.27734,-0.1981 -0.54478,-0.287245 -0.25753,-0.09905 -0.57449,-0.09905 -0.63392,0 -0.9905,0.505155 -0.34668,0.505156 -0.34668,1.495657 0,0.9905 0.34668,1.465941 0.34668,0.465535 0.9905,0.465535 0.30706,0 0.56459,-0.08915 0.25753,-0.09905 0.57449,-0.307055 l 0.41601,0.5943 q -0.71316,0.574491 -1.59471,0.574491 -1.05983,0 -1.67395,-0.713161 -0.6042,-0.71316 -0.6042,-1.971096 0,-0.832021 0.27734,-1.456036 0.27734,-0.624016 0.7825,-0.970691 0.51506,-0.346675 1.21831,-0.346675 z"
         style="font-style:normal;font-variant:normal;font-weight:normal;font-stretch:normal;font-family:'Fira Sans';-inkscape-font-specification:'Fira Sans';fill:#a498a2;fill-opacity:1"
         id="path4247"
         inkscape:connector-curvature="0" />
      <path
         d="m 319.62589,80.071579 q 0.27734,0 0.51506,0.05943 l -0.16839,0.89145 q -0.23772,-0.05943 -0.45563,-0.05943 -0.48534,0 -0.78249,0.35658 -0.29715,0.356581 -0.46554,1.109361 l 0,2.981408 -0.91126,0 0,-5.219939 0.7825,0 0.0891,1.059835 q 0.20801,-0.584395 0.56459,-0.881545 0.35658,-0.29715 0.83202,-0.29715 z"
         style="font-style:normal;font-variant:normal;font-weight:normal;font-stretch:normal;font-family:'Fira Sans';-inkscape-font-specification:'Fira Sans';fill:#a498a2;fill-opacity:1"
         id="path4249"
         inkscape:connector-curvature="0" />
      <path
         d="m 322.09934,80.190439 0,5.219939 -0.91126,0 0,-5.219939 0.91126,0 z m -0.46553,-2.505967 q 0.28724,0 0.46553,0.17829 0.17829,0.17829 0.17829,0.445725 0,0.267435 -0.17829,0.445726 -0.17829,0.168385 -0.46553,0.168385 -0.27734,0 -0.45563,-0.168385 -0.17829,-0.178291 -0.17829,-0.445726 0,-0.267435 0.17829,-0.445725 0.17829,-0.17829 0.45563,-0.17829 z"
         style="font-style:normal;font-variant:normal;font-weight:normal;font-stretch:normal;font-family:'Fira Sans';-inkscape-font-specification:'Fira Sans';fill:#a498a2;fill-opacity:1"
         id="path4251"
         inkscape:connector-curvature="0" />
      <path
         d="m 326.37088,80.071579 q 1.0004,0 1.46594,0.71316 0.46553,0.713161 0.46553,2.010717 0,1.22822 -0.53487,1.981001 -0.53487,0.752781 -1.51546,0.752781 -0.87164,0 -1.36689,-0.594301 l 0,2.476252 -0.91126,0.108955 0,-7.329705 0.78249,0 0.0693,0.703255 q 0.28724,-0.3962 0.69335,-0.604205 0.4061,-0.21791 0.85183,-0.21791 z m -0.33677,4.714783 q 1.28765,0 1.28765,-1.990906 0,-2.000812 -1.1787,-2.000812 -0.38629,0 -0.70325,0.227815 -0.31696,0.227815 -0.55468,0.584396 l 0,2.545587 q 0.1981,0.307055 0.49525,0.47544 0.29715,0.15848 0.65373,0.15848 z"
         style="font-style:normal;font-variant:normal;font-weight:normal;font-stretch:normal;font-family:'Fira Sans';-inkscape-font-specification:'Fira Sans';fill:#a498a2;fill-opacity:1"
         id="path4253"
         inkscape:connector-curvature="0" />
      <path
         d="m 332.4897,85.172657 q -0.51506,0.356581 -1.16879,0.356581 -0.66363,0 -1.04003,-0.376391 -0.36648,-0.386295 -0.36648,-1.109361 l 0,-3.149792 -0.91126,0 0,-0.703255 0.91126,0 0,-1.178696 0.91126,-0.108955 0,1.287651 1.23813,0 -0.099,0.703255 -1.13908,0 0,3.110172 q 0,0.406106 0.13867,0.594301 0.14858,0.17829 0.48535,0.17829 0.30705,0 0.69335,-0.208005 l 0.34667,0.604205 z"
         style="font-style:normal;font-variant:normal;font-weight:normal;font-stretch:normal;font-family:'Fira Sans';-inkscape-font-specification:'Fira Sans';fill:#a498a2;fill-opacity:1"
         id="path4255"
         inkscape:connector-curvature="0" />
    </g>
  </g>
</svg>
