<svg xmlns="http://www.w3.org/2000/svg" width="538.693" height="154.18" viewBox="0 0 505.024 144.543"><g word-spacing="0"><g style="line-height:125%" font-weight="900" font-size="40" font-family="Montserrat" letter-spacing="4" stroke="#b7288f" stroke-width="1.5"><g fill="none"><path style="-inkscape-font-specification:'Montserrat Heavy'" d="M48.25 47.907H36.508V37.424h37.006v10.483H61.77v29.616H48.25V47.907zM108.329 62.973v14.55h-13.52V62.801L79.687 37.424H93.95l8.192 13.863 8.249-13.863h13.06L108.33 62.973zM147.393 37.424q5.557 0 9.681 1.833 4.125 1.833 6.359 5.27 2.234 3.437 2.234 8.02t-2.234 8.02q-2.234 3.437-6.359 5.27-4.124 1.833-9.68 1.833h-5.786v9.853h-13.52v-40.1h19.305zm-.859 19.82q2.75 0 4.125-1.203 1.374-1.26 1.374-3.494t-1.374-3.437q-1.375-1.26-4.125-1.26h-4.926v9.394h4.926zM204.408 67.326v10.197h-33.34v-40.1h32.595V47.62h-19.305v4.698h16.956v9.738h-16.956v5.27h20.05z" stroke-width="2.14818"/></g><g fill="#bd21a0"><path style="-inkscape-font-specification:'Montserrat Heavy'" d="M230.348 78.44q-4.984 0-9.739-1.089-4.697-1.146-7.733-3.036l4.353-9.853q2.865 1.661 6.416 2.692 3.552.974 6.817.974 2.807 0 4.01-.515 1.203-.573 1.203-1.662 0-1.26-1.604-1.89-1.546-.63-5.155-1.375-4.64-.974-7.734-2.062-3.093-1.146-5.385-3.666-2.291-2.578-2.291-6.932 0-3.78 2.12-6.874 2.12-3.093 6.3-4.869 4.24-1.776 10.255-1.776 4.124 0 8.077.917 4.01.859 7.046 2.578l-4.067 9.795q-5.9-2.979-11.17-2.979-5.214 0-5.214 2.52 0 1.204 1.547 1.834 1.547.573 5.098 1.26 4.583.86 7.734 2.005 3.15 1.089 5.442 3.61 2.348 2.52 2.348 6.873 0 3.781-2.119 6.875-2.12 3.036-6.359 4.869-4.181 1.776-10.196 1.776zM321.419 37.424l-12.832 40.099h-14.493l-6.473-21.424-6.817 21.424H266.31l-12.832-40.1h13.92l6.989 22.8 7.39-22.8h12.43l6.99 23.086 7.389-23.085h12.832zM350.291 70.534h-15.238l-2.692 6.989h-13.748l17.529-40.1h13.29l17.529 40.1h-13.977l-2.693-6.989zm-3.723-9.738l-3.896-10.082-3.895 10.082h7.79zM392.088 67.44h-3.666v10.083h-13.519v-40.1h19.305q5.557 0 9.681 1.834 4.125 1.833 6.359 5.27 2.234 3.437 2.234 8.02 0 4.296-1.948 7.504-1.948 3.208-5.614 5.099l8.421 12.373h-14.436l-6.817-10.082zm6.76-14.893q0-2.234-1.375-3.437-1.375-1.26-4.124-1.26h-4.927v9.394h4.927q2.75 0 4.124-1.203 1.375-1.26 1.375-3.494zM456.198 77.523l-.115-18.274-8.707 14.665h-5.957L432.71 59.88v17.644h-12.316v-40.1h11.113l13.061 21.368 12.717-21.367H468.4l.114 40.099h-12.316z" stroke-width="2.14818"/></g></g><g style="line-height:125%;-inkscape-font-specification:Bebas" font-weight="400" font-size="9.905" font-family="Fira Sans" letter-spacing="0" fill="#a498a2"><path d="M77.71 95.96q.908 0 1.566.273.671.26 1.328.82l-.783.835q-.517-.432-.993-.619-.475-.187-1.119-.187-.74 0-1.37.417-.615.403-1.007 1.31-.392.892-.392 2.273 0 2.086.658 3.05.671.964 1.972.964 1.062 0 1.832-.446v-2.993h-1.707l-.153-1.107h3.174v4.79q-1.496.878-3.146.878-1.902 0-2.98-1.309-1.062-1.31-1.062-3.827 0-1.612.56-2.763.573-1.165 1.524-1.755.965-.604 2.097-.604zM88.476 102.032q0 .33-.028.676H83.75q.084 1.251.615 1.841.532.59 1.371.59.531 0 .979-.158.448-.158.937-.504l.56.792q-1.175.95-2.574.95-1.538 0-2.405-1.037-.853-1.035-.853-2.848 0-1.18.363-2.087.378-.92 1.063-1.438.7-.518 1.636-.518 1.469 0 2.252.992.783.993.783 2.749zm-1.273-.389q0-1.122-.433-1.712-.434-.59-1.3-.59-1.581 0-1.72 2.388h3.453v-.086zM94 98.29q1.006 0 1.566.62.573.618.573 1.697v5.439h-1.287v-5.252q0-.806-.293-1.136-.294-.331-.867-.331-.588 0-1.035.345-.448.345-.84.993v5.38h-1.286v-7.582h1.105l.112 1.123q.391-.605.965-.95.587-.345 1.286-.345zM104.291 102.032q0 .33-.027.676h-4.7q.084 1.251.616 1.841.531.59 1.37.59.532 0 .98-.158.447-.158.936-.504l.56.792q-1.175.95-2.574.95-1.538 0-2.405-1.037-.853-1.035-.853-2.848 0-1.18.364-2.087.377-.92 1.062-1.438.7-.518 1.637-.518 1.468 0 2.251.992.783.993.783 2.749zm-1.272-.389q0-1.122-.434-1.712-.433-.59-1.3-.59-1.58 0-1.72 2.388h3.454v-.086zM109.549 98.29q.391 0 .727.087l-.238 1.295q-.335-.086-.643-.086-.685 0-1.105.518-.42.518-.657 1.611v4.33h-1.287v-7.582h1.105l.126 1.54q.294-.85.797-1.28.504-.432 1.175-.432zM116.228 104.276q0 .46.154.69.153.216.461.332l-.294.92q-.573-.072-.923-.33-.35-.26-.517-.806-.741 1.136-2.196 1.136-1.09 0-1.72-.633-.63-.633-.63-1.654 0-1.209.84-1.856.853-.648 2.405-.648h1.133v-.56q0-.807-.378-1.152-.377-.345-1.16-.345-.812 0-1.986.403l-.322-.964q1.37-.518 2.545-.518 1.301 0 1.944.662.644.647.644 1.856v3.467zm-3.021.95q1.105 0 1.734-1.18v-1.741h-.965q-2.042 0-2.042 1.554 0 .676.322 1.021.322.346.95.346zM122.604 105.7q-.727.518-1.65.518-.937 0-1.469-.546-.517-.561-.517-1.612v-4.575h-1.287v-1.022h1.287v-1.712l1.286-.158v1.87h1.748l-.14 1.022h-1.608v4.518q0 .59.196.863.21.259.685.259.434 0 .98-.302l.489.877zM129.285 102.032q0 .33-.028.676h-4.7q.085 1.251.616 1.841.531.59 1.37.59.532 0 .98-.158.447-.158.937-.504l.559.792q-1.175.95-2.573.95-1.539 0-2.406-1.037-.853-1.035-.853-2.848 0-1.18.364-2.087.377-.92 1.063-1.438.699-.518 1.636-.518 1.468 0 2.251.992.784.993.784 2.749zm-1.273-.389q0-1.122-.434-1.712-.433-.59-1.3-.59-1.58 0-1.72 2.388h3.454v-.086zM137.138 96.132q2.182 0 3.496 1.05 1.329 1.037 1.329 3.857 0 2.748-1.329 3.884-1.314 1.123-3.202 1.123h-2.308v-9.914h2.014zm-.685 1.094v7.74h1.077q1.342 0 2.181-.848.84-.85.84-3.08 0-1.568-.434-2.402-.434-.849-1.105-1.122-.671-.288-1.58-.288h-.98zM146.837 98.29q1.553 0 2.406 1.065.867 1.065.867 2.892 0 1.18-.392 2.087-.391.892-1.133 1.395-.74.49-1.762.49-1.552 0-2.42-1.065-.866-1.065-.866-2.892 0-1.18.391-2.072.392-.907 1.133-1.396.741-.503 1.776-.503zm0 1.065q-1.916 0-1.916 2.907 0 2.892 1.902 2.892t1.902-2.907q0-2.892-1.888-2.892zM154.92 98.29q.658 0 1.203.202.546.187 1.05.619l-.616.834q-.392-.287-.77-.417-.363-.144-.81-.144-.896 0-1.4.734-.489.734-.489 2.173 0 1.438.49 2.129.49.676 1.398.676.434 0 .798-.13.363-.143.81-.445l.588.863q-1.007.834-2.252.834-1.496 0-2.363-1.036-.853-1.035-.853-2.863 0-1.208.391-2.115.392-.906 1.105-1.41.728-.503 1.72-.503zM160.214 95.255v10.79h-1.287V95.414l1.287-.158zm4.238 3.208l-2.713 3.353 3.02 4.23h-1.538l-2.923-4.144 2.713-3.439h1.44zM171.514 102.032q0 .33-.028.676h-4.7q.084 1.251.616 1.841.531.59 1.37.59.532 0 .98-.158.447-.158.936-.504l.56.792q-1.175.95-2.573.95-1.539 0-2.406-1.037-.853-1.035-.853-2.848 0-1.18.364-2.087.377-.92 1.062-1.438.7-.518 1.637-.518 1.468 0 2.251.992.784.993.784 2.749zm-1.273-.389q0-1.122-.434-1.712-.433-.59-1.3-.59-1.58 0-1.72 2.388h3.454v-.086zM176.77 98.29q.392 0 .728.087l-.238 1.295q-.335-.086-.643-.086-.685 0-1.105.518-.42.518-.657 1.611v4.33h-1.287v-7.582h1.105l.126 1.54q.294-.85.797-1.28.504-.432 1.175-.432zM185.139 95.96q.965 0 1.65.288.685.273 1.329.863l-.727.834q-.546-.446-1.077-.647-.518-.216-1.12-.216-.754 0-1.244.36t-.49 1.05q0 .432.168.734.168.288.616.532.461.245 1.328.518.91.288 1.51.619.602.33.966.92.377.576.377 1.468 0 .864-.42 1.525-.405.662-1.188 1.036-.77.374-1.832.374-2 0-3.272-1.28l.727-.835q.587.49 1.188.749.602.244 1.343.244.895 0 1.483-.446.587-.46.587-1.324 0-.489-.182-.805-.182-.331-.63-.59-.433-.26-1.272-.518-1.482-.46-2.168-1.108-.685-.647-.685-1.755 0-.749.378-1.338.391-.59 1.077-.921.699-.331 1.58-.331zM198.731 98.463l-1.678 7.583h-1.748l-1.287-6.388-1.328 6.388h-1.706l-1.72-7.583h1.286l1.329 6.662 1.454-6.662h1.44l1.385 6.662 1.343-6.662h1.23zM205.138 104.276q0 .46.154.69.153.216.461.332l-.294.92q-.573-.072-.923-.33-.35-.26-.517-.806-.741 1.136-2.196 1.136-1.09 0-1.72-.633-.63-.633-.63-1.654 0-1.209.84-1.856.853-.648 2.405-.648h1.133v-.56q0-.807-.377-1.152-.378-.345-1.161-.345-.811 0-1.986.403l-.322-.964q1.37-.518 2.546-.518 1.3 0 1.943.662.644.647.644 1.856v3.467zm-3.021.95q1.105 0 1.734-1.18v-1.741h-.965q-2.042 0-2.042 1.554 0 .676.322 1.021.322.346.951.346zM210.997 98.29q.391 0 .727.087l-.238 1.295q-.336-.086-.643-.086-.686 0-1.105.518-.42.518-.657 1.611v4.33h-1.287v-7.582h1.105l.126 1.54q.293-.85.797-1.28.503-.432 1.174-.432zM220.6 98.29q.91 0 1.455.634.545.618.545 1.683v5.439h-1.286v-5.252q0-1.467-1.035-1.467-.546 0-.923.33-.378.317-.811 1.008v5.38h-1.287v-5.25q0-1.468-1.035-1.468-.56 0-.937.33-.378.331-.797 1.008v5.38h-1.287v-7.582h1.105l.112 1.108q.825-1.28 2.126-1.28.685 0 1.16.36.49.36.7 1.007.433-.662.95-1.008.532-.36 1.245-.36zM231.594 98.29q.657 0 1.202.202.546.187 1.05.619l-.616.834q-.392-.287-.77-.417-.363-.144-.81-.144-.896 0-1.4.734-.489.734-.489 2.173 0 1.438.49 2.129.49.676 1.398.676.434 0 .798-.13.363-.143.81-.445l.588.863q-1.007.834-2.251.834-1.497 0-2.364-1.036-.853-1.035-.853-2.863 0-1.208.392-2.115.391-.906 1.104-1.41.728-.503 1.72-.503zM238.096 98.29q1.553 0 2.406 1.065.867 1.065.867 2.892 0 1.18-.392 2.087-.391.892-1.132 1.395-.742.49-1.763.49-1.552 0-2.419-1.065t-.867-2.892q0-1.18.392-2.072.391-.907 1.132-1.396.742-.503 1.776-.503zm0 1.065q-1.916 0-1.916 2.907 0 2.892 1.902 2.892t1.902-2.907q0-2.892-1.888-2.892zM246.963 98.29q1.007 0 1.566.62.574.618.574 1.697v5.439h-1.287v-5.252q0-.806-.294-1.136-.293-.331-.867-.331-.587 0-1.035.345-.447.345-.839.993v5.38h-1.286v-7.582h1.104l.112 1.123q.392-.605.965-.95.588-.345 1.287-.345zM254.22 95.255q.588 0 1.063.13.49.129.98.388l-.448.92q-.728-.36-1.553-.36-.74 0-1.02.274t-.28.85v1.006h4.111v7.583h-1.286v-6.561h-2.825v6.56h-1.287v-6.56H250.5v-1.022h1.175v-.992q0-1.008.63-1.612.629-.604 1.915-.604zM265.663 98.809q-.42.144-.923.187-.503.043-1.23.043 1.3.604 1.3 1.913 0 1.137-.755 1.856-.755.72-2.056.72-.503 0-.937-.144-.168.115-.266.317-.097.187-.097.388 0 .619.965.619h1.174q.742 0 1.315.273t.881.748q.322.475.322 1.08 0 1.107-.881 1.697-.881.604-2.574.604-1.188 0-1.888-.259-.685-.244-.979-.748-.293-.503-.293-1.295h1.16q0 .46.168.72.168.273.602.403.433.143 1.23.143 1.161 0 1.65-.302.504-.287.504-.877 0-.533-.391-.806-.392-.273-1.091-.273h-1.161q-.937 0-1.427-.403-.475-.418-.475-1.036 0-.374.21-.72.21-.345.601-.618-.643-.346-.95-.85-.295-.517-.295-1.251 0-.763.364-1.367.378-.604 1.02-.935.658-.345 1.455-.345.867.014 1.455-.058.587-.086.965-.216.391-.144.95-.403l.378 1.195zm-3.748.431q-.727 0-1.133.475-.391.46-.391 1.223 0 .777.405 1.252.406.46 1.147.46.755 0 1.147-.446.406-.46.406-1.28 0-1.684-1.58-1.684zM272.331 106.046h-1.105l-.098-1.18q-.42.705-.965 1.036-.545.316-1.328.316-.965 0-1.51-.604-.546-.604-.546-1.712v-5.439h1.287v5.295q0 .777.265 1.108.266.316.867.316 1.077 0 1.846-1.309v-5.41h1.287v7.583zM278.191 98.29q.392 0 .728.087l-.238 1.295q-.336-.086-.644-.086-.685 0-1.104.518-.42.518-.658 1.611v4.33h-1.286v-7.582h1.105l.125 1.54q.294-.85.798-1.28.503-.432 1.174-.432zM284.87 104.276q0 .46.154.69.154.216.461.332l-.293.92q-.574-.072-.923-.33-.35-.26-.518-.806-.74 1.136-2.195 1.136-1.091 0-1.72-.633-.63-.633-.63-1.654 0-1.209.84-1.856.852-.648 2.405-.648h1.132v-.56q0-.807-.377-1.152-.378-.345-1.16-.345-.812 0-1.987.403l-.321-.964q1.37-.518 2.545-.518 1.3 0 1.944.662.643.647.643 1.856v3.467zm-3.02.95q1.104 0 1.733-1.18v-1.741h-.964q-2.042 0-2.042 1.554 0 .676.321 1.021.322.346.951.346zM291.246 105.7q-.727.518-1.65.518-.937 0-1.468-.546-.518-.561-.518-1.612v-4.575h-1.286v-1.022h1.286v-1.712l1.287-.158v1.87h1.748l-.14 1.022h-1.608v4.518q0 .59.196.863.21.259.685.259.433 0 .979-.302l.49.877zM293.866 98.463v7.583h-1.287v-7.583h1.287zm-.657-3.64q.405 0 .657.26.252.258.252.647 0 .388-.252.647-.252.245-.657.245-.392 0-.643-.245-.252-.259-.252-.647 0-.389.252-.648.251-.259.643-.259zM299.282 98.29q1.552 0 2.405 1.065.867 1.065.867 2.892 0 1.18-.391 2.087-.392.892-1.133 1.395-.741.49-1.762.49-1.552 0-2.42-1.065-.867-1.065-.867-2.892 0-1.18.392-2.072.392-.907 1.133-1.396.741-.503 1.776-.503zm0 1.065q-1.916 0-1.916 2.907 0 2.892 1.902 2.892t1.902-2.907q0-2.892-1.888-2.892zM308.148 98.29q1.007 0 1.567.62.573.618.573 1.697v5.439h-1.287v-5.252q0-.806-.293-1.136-.294-.331-.867-.331-.588 0-1.035.345-.448.345-.84.993v5.38h-1.286v-7.582h1.105l.112 1.123q.391-.605.965-.95.587-.345 1.286-.345zM314.874 98.29q.756 0 1.357.216t1.147.648l-.546.834q-.503-.33-.965-.489-.447-.158-.95-.158-.63 0-.994.273-.363.26-.363.72 0 .46.335.72.35.258 1.245.503 1.23.316 1.832.863.616.547.616 1.496 0 1.123-.854 1.712-.839.59-2.055.59-1.679 0-2.783-.992l.685-.806q.937.734 2.07.734.727 0 1.146-.302.434-.317.434-.85 0-.388-.154-.618-.154-.245-.531-.417-.378-.187-1.105-.389-1.175-.316-1.706-.849-.518-.532-.518-1.352 0-.59.336-1.065.35-.489.95-.748.616-.273 1.371-.273zM331.537 98.463l-1.678 7.583h-1.749l-1.286-6.388-1.329 6.388h-1.706l-1.72-7.583h1.286l1.329 6.662 1.454-6.662h1.44l1.385 6.662 1.343-6.662h1.23zM334.429 98.463v7.583h-1.287v-7.583h1.287zm-.657-3.64q.405 0 .657.26.252.258.252.647 0 .388-.252.647-.252.245-.657.245-.392 0-.644-.245-.252-.259-.252-.647 0-.389.252-.648t.644-.259zM340.796 105.7q-.728.518-1.65.518-.938 0-1.47-.546-.517-.561-.517-1.612v-4.575h-1.286v-1.022h1.286v-1.712l1.287-.158v1.87h1.748l-.14 1.022h-1.608v4.518q0 .59.196.863.21.259.685.259.434 0 .98-.302l.489.877zM345.597 98.29q1.007 0 1.566.62.574.618.574 1.697v5.439h-1.287v-5.252q0-.806-.307-1.136-.294-.331-.868-.331-.573 0-1.02.345-.448.345-.84.978v5.396h-1.286V95.427l1.286-.143v4.23q.868-1.223 2.182-1.223zM359.8 96.132l-.14 1.166h-2.67v8.748h-1.33v-8.748h-2.74v-1.166h6.88zM363.681 106.089q-.433 1.324-1.217 2.086-.769.777-2.21.935l-.139-1.036q.727-.13 1.16-.374.434-.244.686-.633.266-.374.49-1.021h-.434l-2.475-7.583h1.37l1.972 6.619 1.93-6.619h1.329l-2.462 7.626zM370.998 98.29q1.413 0 2.07 1.037.657 1.036.657 2.92 0 1.784-.755 2.878-.755 1.093-2.14 1.093-1.23 0-1.93-.863v3.597l-1.286.158V98.463h1.104l.098 1.022q.406-.576.98-.878.573-.316 1.202-.316zm-.475 6.85q1.818 0 1.818-2.893 0-2.906-1.665-2.906-.545 0-.993.33-.447.332-.783.85v3.697q.28.446.7.691.42.23.923.23zM381.484 102.032q0 .33-.028.676h-4.7q.084 1.251.616 1.841.531.59 1.37.59.532 0 .98-.158.447-.158.936-.504l.56.792q-1.175.95-2.573.95-1.539 0-2.406-1.037-.853-1.035-.853-2.848 0-1.18.364-2.087.377-.92 1.062-1.438.7-.518 1.637-.518 1.468 0 2.251.992.784.993.784 2.749zm-1.273-.389q0-1.122-.434-1.712-.433-.59-1.3-.59-1.58 0-1.72 2.388h3.454v-.086zM385.986 95.96q.965 0 1.65.288.685.273 1.329.863l-.728.834q-.545-.446-1.077-.647-.517-.216-1.118-.216-.756 0-1.245.36-.49.36-.49 1.05 0 .432.168.734.168.288.616.532.461.245 1.328.518.91.288 1.51.619.602.33.966.92.377.576.377 1.468 0 .864-.42 1.525-.405.662-1.188 1.036-.77.374-1.832.374-2 0-3.273-1.28l.728-.835q.587.49 1.188.749.602.244 1.343.244.895 0 1.482-.446.588-.46.588-1.324 0-.489-.182-.805-.182-.331-.63-.59-.433-.26-1.272-.518-1.483-.46-2.168-1.108-.685-.647-.685-1.755 0-.749.377-1.338.392-.59 1.077-.921.7-.331 1.58-.331zM393.844 98.29q.658 0 1.203.202.545.187 1.049.619l-.615.834q-.392-.287-.77-.417-.363-.144-.81-.144-.896 0-1.4.734-.489.734-.489 2.173 0 1.438.49 2.129.49.676 1.398.676.434 0 .797-.13.364-.143.812-.445l.587.863q-1.007.834-2.252.834-1.496 0-2.363-1.036-.853-1.035-.853-2.863 0-1.208.391-2.115.392-.906 1.105-1.41.727-.503 1.72-.503zM401.054 98.29q.392 0 .727.087l-.238 1.295q-.335-.086-.643-.086-.685 0-1.105.518-.42.518-.657 1.611v4.33h-1.287v-7.582h1.105l.126 1.54q.294-.85.797-1.28.504-.432 1.175-.432zM404.546 98.463v7.583h-1.286v-7.583h1.286zm-.657-3.64q.406 0 .657.26.252.258.252.647 0 .388-.252.647-.251.245-.657.245-.392 0-.643-.245-.252-.259-.252-.647 0-.389.252-.648.251-.259.643-.259zM410.577 98.29q1.413 0 2.07 1.037.658 1.036.658 2.92 0 1.784-.756 2.878-.755 1.093-2.14 1.093-1.23 0-1.93-.863v3.597l-1.286.158V98.463h1.105l.098 1.022q.405-.576.979-.878.573-.316 1.202-.316zm-.475 6.85q1.818 0 1.818-2.893 0-2.906-1.664-2.906-.546 0-.993.33-.448.332-.783.85v3.697q.28.446.699.691.42.23.923.23zM419.217 105.7q-.727.518-1.65.518-.937 0-1.469-.546-.517-.561-.517-1.612v-4.575h-1.287v-1.022h1.287v-1.712l1.286-.158v1.87h1.748l-.14 1.022h-1.608v4.518q0 .59.196.863.21.259.685.259.434 0 .98-.302l.489.877z" style="-inkscape-font-specification:'Fira Sans'"/></g></g></svg>